<svg width="44" height="42" viewBox="0 0 44 42" fill="none" xmlns="http://www.w3.org/2000/svg">
<path d="M41.1426 11.5352C41.1426 11.8503 41.1283 12.1582 41.0996 12.459C41.071 12.7598 41.0137 13.0677 40.9277 13.3828L43.5703 14.4785L42.5176 17.0137L39.8535 15.918C39.1947 16.9779 38.3353 17.8372 37.2754 18.4961L38.3711 21.1816L35.8359 22.2344L34.7188 19.5703C34.418 19.6419 34.1172 19.6921 33.8164 19.7207C33.5156 19.7493 33.2077 19.7708 32.8926 19.7852C32.5775 19.7852 32.2695 19.7708 31.9688 19.7422C31.668 19.7135 31.36 19.6562 31.0449 19.5703L30.5508 20.7734L28.166 19.334L28.5098 18.4961C27.4499 17.8372 26.5905 16.9779 25.9316 15.918L23.2461 17.0137L22.1934 14.4785L24.8574 13.3828C24.7858 13.082 24.7357 12.7812 24.707 12.4805C24.6784 12.1797 24.6569 11.8646 24.6426 11.5352C24.6426 11.2201 24.6569 10.9121 24.6855 10.6113C24.7142 10.3105 24.7715 10.0098 24.8574 9.70898L22.1934 8.5918L23.2461 6.05664L25.9316 7.17383C26.2611 6.64388 26.6406 6.16406 27.0703 5.73438C27.5 5.30469 27.9798 4.91797 28.5098 4.57422L27.4141 1.91016L29.9492 0.857422L31.0449 3.5C31.3457 3.42839 31.6465 3.37826 31.9473 3.34961C32.248 3.32096 32.5632 3.29948 32.8926 3.28516C33.2077 3.28516 33.5156 3.29948 33.8164 3.32812C34.1172 3.35677 34.418 3.41406 34.7188 3.5L35.8359 0.857422L38.3711 1.91016L37.2754 4.57422C38.3353 5.23307 39.1947 6.09245 39.8535 7.15234L42.5176 6.05664L43.5703 8.5918L40.9277 9.70898C40.9993 10.0098 41.0495 10.3105 41.0781 10.6113C41.1068 10.9121 41.1283 11.2201 41.1426 11.5352ZM32.8926 17.0352C33.6517 17.0352 34.3607 16.8919 35.0195 16.6055C35.6784 16.319 36.2656 15.9251 36.7812 15.4238C37.2969 14.9225 37.6908 14.3424 37.9629 13.6836C38.235 13.0247 38.3783 12.3086 38.3926 11.5352C38.3926 10.776 38.2493 10.0671 37.9629 9.4082C37.6764 8.74935 37.2826 8.16211 36.7812 7.64648C36.2799 7.13086 35.6999 6.73698 35.041 6.46484C34.3822 6.19271 33.666 6.04948 32.8926 6.03516C32.1335 6.03516 31.4245 6.17839 30.7656 6.46484C30.1068 6.7513 29.5195 7.14518 29.0039 7.64648C28.4883 8.14779 28.0944 8.72786 27.8223 9.38672C27.5501 10.0456 27.4069 10.7617 27.3926 11.5352C27.3926 12.2943 27.5358 13.0033 27.8223 13.6621C28.1087 14.321 28.5026 14.9082 29.0039 15.4238C29.5052 15.9395 30.0853 16.3333 30.7441 16.6055C31.403 16.8776 32.1191 17.0208 32.8926 17.0352ZM20.4961 21.7617L23.4824 20.5156L24.4277 22.793V23.1152L21.5703 24.2969C21.6706 24.6836 21.7493 25.0703 21.8066 25.457C21.8639 25.8438 21.8926 26.2448 21.8926 26.6602C21.8926 27.0612 21.8639 27.4551 21.8066 27.8418C21.7493 28.2285 21.6706 28.6224 21.5703 29.0234L24.4277 30.2051V30.5273L23.4824 32.8047L20.4961 31.5586C20.0807 32.2461 19.5938 32.8691 19.0352 33.4277C18.4766 33.9863 17.8535 34.4805 17.166 34.9102L18.4121 37.8965L15.8555 38.9492L14.6309 35.9629C14.2441 36.0632 13.8574 36.1419 13.4707 36.1992C13.084 36.2565 12.6829 36.2852 12.2676 36.2852C11.8665 36.2852 11.4727 36.2565 11.0859 36.1992C10.6992 36.1419 10.3053 36.0632 9.9043 35.9629L8.6582 38.9492L6.12305 37.8965L7.36914 34.8887C5.97982 34.0579 4.86979 32.9479 4.03906 31.5586L1.03125 32.8047L0 30.2695L2.96484 29.0234C2.86458 28.6367 2.78581 28.25 2.72852 27.8633C2.67122 27.4766 2.64258 27.0755 2.64258 26.6602C2.64258 26.2591 2.67122 25.8652 2.72852 25.4785C2.78581 25.0918 2.86458 24.6979 2.96484 24.2969L0 23.0723L1.03125 20.5156L4.03906 21.7617C4.86979 20.3724 5.97982 19.2624 7.36914 18.4316L6.12305 15.4453L8.6582 14.3926L9.9043 17.3574C10.291 17.2572 10.6777 17.1784 11.0645 17.1211C11.4512 17.0638 11.8522 17.0352 12.2676 17.0352C12.6686 17.0352 13.0625 17.0638 13.4492 17.1211C13.8359 17.1784 14.2298 17.2572 14.6309 17.3574L15.8555 14.3926L18.4121 15.4453L17.166 18.4316C18.5553 19.2624 19.6654 20.3724 20.4961 21.7617ZM12.2676 33.5352C13.2129 33.5352 14.1009 33.3561 14.9316 32.998C15.7624 32.64 16.4857 32.153 17.1016 31.5371C17.7174 30.9212 18.2116 30.1908 18.584 29.3457C18.9564 28.5007 19.1426 27.6055 19.1426 26.6602C19.1426 25.7148 18.9635 24.8268 18.6055 23.9961C18.2474 23.1654 17.7533 22.4421 17.123 21.8262C16.4928 21.2103 15.7624 20.7161 14.9316 20.3438C14.1009 19.9714 13.2129 19.7852 12.2676 19.7852C11.3223 19.7852 10.4342 19.9642 9.60352 20.3223C8.77279 20.6803 8.04232 21.1745 7.41211 21.8047C6.7819 22.4349 6.28776 23.1654 5.92969 23.9961C5.57161 24.8268 5.39258 25.7148 5.39258 26.6602C5.39258 27.6055 5.57161 28.4935 5.92969 29.3242C6.28776 30.1549 6.77474 30.8854 7.39062 31.5156C8.00651 32.1458 8.73698 32.64 9.58203 32.998C10.4271 33.3561 11.3223 33.5352 12.2676 33.5352ZM27.1777 42V22.75L43.2266 32.375L27.1777 42ZM29.9277 27.6055V37.1445L37.877 32.375L29.9277 27.6055Z" fill="white"/>
</svg>
