<svg width="41" height="38" viewBox="0 0 41 38" fill="none" xmlns="http://www.w3.org/2000/svg">
<path d="M36.6667 26.3334V20.8334C36.6667 18.7984 35.035 17.1667 33 17.1667H22V11.6667H25.6667V0.666748H14.6667V11.6667H18.3333V17.1667H7.33333C5.29833 17.1667 3.66667 18.7984 3.66667 20.8334V26.3334H0V37.3334H11V26.3334H7.33333V20.8334H18.3333V26.3334H14.6667V37.3334H25.6667V26.3334H22V20.8334H33V26.3334H29.3333V37.3334H40.3333V26.3334H36.6667ZM18.3333 4.33341H22V8.00008H18.3333V4.33341ZM7.33333 33.6667H3.66667V30.0001H7.33333V33.6667ZM22 33.6667H18.3333V30.0001H22V33.6667ZM36.6667 33.6667H33V30.0001H36.6667V33.6667Z" fill="white"/>
</svg>
