<svg width="39" height="34" viewBox="0 0 39 34" fill="none" xmlns="http://www.w3.org/2000/svg">
<path d="M7.33333 13.315H11V26.1483H7.33333V13.315ZM22 18.815H25.6667V26.1483H22V18.815ZM14.6667 7.815H18.3333V26.1483H14.6667V7.815ZM33 7.83333V2.33333H29.3333V7.83333H23.8333V11.5H29.3333V17H33V11.5H38.5V7.83333H33ZM29.3333 29.8333H3.66667V4.16667H25.6667V0.5H3.66667C1.65 0.5 0 2.15 0 4.16667V29.8333C0 31.85 1.65 33.5 3.66667 33.5H29.3333C31.35 33.5 33 31.85 33 29.8333V20.6667H29.3333V29.8333Z" fill="white"/>
</svg>
